<?xml version="1.0" encoding="UTF-8"?>
<svg width="8px" height="11px" viewBox="0 0 8 11" version="1.1" xmlns="http://www.w3.org/2000/svg" xmlns:xlink="http://www.w3.org/1999/xlink">
    <title>Arrow</title>
    <g id="Page-1" stroke="none" stroke-width="1" fill="none" fill-rule="evenodd">
        <g id="mobile-whole" transform="translate(-179.000000, -628.000000)">
            <rect id="Rectangle" fill="#F8F8F8" x="0" y="0" width="360" height="2492"></rect>
            <g id="Scroll-Down" transform="translate(148.000000, 612.000000)" fill="#615D5D" fill-rule="nonzero">
                <path d="M36.3097234,25.0275109 C36.195328,25.1419063 36.195328,25.3268114 36.3097234,25.4412069 C36.3667749,25.4982583 36.4416731,25.5269303 36.5165714,25.5269303 C36.5914697,25.5269303 36.666368,25.4982583 36.7234194,25.4412069 L40.233984,21.9306423 C40.2611931,21.9037257 40.2825509,21.8712503 40.297472,21.835264 C40.3270217,21.7638766 40.3270217,21.6834194 40.297472,21.6117394 C40.2825509,21.5757531 40.2609006,21.5432777 40.233984,21.5160686 L36.7234194,18.0057966 C36.609024,17.8914011 36.4241189,17.8914011 36.3097234,18.0057966 C36.195328,18.120192 36.195328,18.3050971 36.3097234,18.4194926 L39.3211611,21.4309303 L30.3725714,21.4309303 C30.2107794,21.4309303 30.08,21.5617097 30.08,21.7235017 C30.08,21.8852937 30.2107794,22.0160731 30.3725714,22.0160731 L39.3211611,22.0160731 L36.3097234,25.0275109 Z" id="Arrow" transform="translate(35.199817, 21.723465) rotate(-270.000000) translate(-35.199817, -21.723465) "></path>
            </g>
        </g>
    </g>
</svg>